<?xml version="1.0" encoding="UTF-8" standalone="no"?>
<!DOCTYPE svg PUBLIC "-//W3C//DTD SVG 1.1//EN" "http://www.w3.org/Graphics/SVG/1.1/DTD/svg11.dtd">
<svg width="100%" height="100%" viewBox="0 0 479 540" version="1.1" xmlns="http://www.w3.org/2000/svg" xmlns:xlink="http://www.w3.org/1999/xlink" xml:space="preserve" xmlns:serif="http://www.serif.com/" style="fill-rule:evenodd;clip-rule:evenodd;stroke-linejoin:round;stroke-miterlimit:2;">
    <g transform="matrix(1,0,0,1,-5067,-934.235446)">
        <g id="Artboard3" transform="matrix(0.519095,0,0,1,4044.38382,394.235446)">
            <rect x="1970" y="540" width="921.785" height="540" style="fill:none;"/>
            <g transform="matrix(7.737179,0,0,26.703165,-10141.787681,-459.411758)">
                <g transform="matrix(5.461052,0,0,0.821377,1447.777295,33.531436)">
                    <path d="M22.929,10.892L22.929,10.896C23.62,10.394 25.232,10.283 26.06,11.408C26.616,12.161 27.116,13.417 27.804,15.265C27.894,15.506 28.042,15.724 28.231,15.899L29.452,17.015L29.452,17.098L28.231,18.215C28.04,18.389 27.894,18.608 27.804,18.848C27.116,20.696 26.616,21.952 26.06,22.706C25.232,23.831 23.623,23.72 22.929,23.217C22.393,22.828 22.653,21.819 23.574,20.569C24.535,19.268 25.578,18.496 26.777,18.025C27.121,17.889 27.411,17.651 27.599,17.336L27.766,17.055L27.599,16.773C27.411,16.458 27.121,16.22 26.777,16.085C25.575,15.613 24.533,14.842 23.574,13.54C22.653,12.288 22.393,11.281 22.929,10.892ZM22.958,10.975C22.86,11.049 22.541,11.335 22.888,12.229C23.201,13.034 24.095,14.337 25.295,15.207C26.081,15.777 26.748,15.994 26.916,16.072C27.286,16.244 27.526,16.504 27.664,16.733C27.678,16.757 27.837,17.019 27.84,17.025C27.855,17.061 27.838,17.091 27.835,17.096C27.818,17.126 27.652,17.412 27.613,17.47C27.292,17.946 26.827,18.108 26.703,18.163C25.77,18.573 24.904,19.189 24.07,20.216C24.051,20.24 22.737,21.644 22.721,22.628C22.719,22.744 22.75,22.915 22.845,23.039C22.845,23.04 22.918,23.165 23.217,23.301C23.958,23.637 25.266,23.612 25.964,22.654C26.332,22.148 26.637,21.432 26.744,21.197C27.175,20.249 27.702,18.849 27.754,18.734C27.775,18.688 27.897,18.408 28.168,18.164L28.706,17.682C29.048,17.36 29.041,17.343 29.373,17.029C28.202,15.944 28.197,15.947 28.107,15.85C27.964,15.697 27.836,15.503 27.754,15.284C27.243,13.926 26.594,12.189 25.967,11.398C25.158,10.377 23.658,10.487 22.994,10.954C22.993,10.954 22.979,10.967 22.958,10.975Z"/>
                </g>
                <g transform="matrix(5.461052,0,0,0.821377,1447.777295,33.531436)">
                    <path d="M41.965,10.892C42.5,11.281 42.24,12.288 41.319,13.54C40.36,14.842 39.318,15.613 38.116,16.085C37.773,16.22 37.482,16.458 37.294,16.773L37.127,17.055L37.294,17.336C37.482,17.651 37.773,17.889 38.116,18.025C39.315,18.496 40.358,19.268 41.319,20.569C42.24,21.819 42.5,22.828 41.965,23.217C41.27,23.72 39.661,23.831 38.833,22.706C38.277,21.952 37.777,20.696 37.089,18.848C36.999,18.608 36.853,18.389 36.662,18.215L35.441,17.098L35.441,17.015L36.662,15.899C36.851,15.724 36.999,15.506 37.089,15.265C37.777,13.417 38.277,12.161 38.833,11.408C39.661,10.283 41.272,10.394 41.965,10.896L41.965,10.892ZM41.934,10.975C41.928,10.973 41.922,10.969 41.915,10.965C41.914,10.964 41.526,10.654 40.803,10.615C40.211,10.583 39.55,10.748 39.069,11.237C38.481,11.834 37.869,13.37 37.39,14.619C37.15,15.245 37.126,15.352 37.016,15.542C36.888,15.762 36.728,15.911 36.698,15.938C36.3,16.307 35.903,16.675 35.505,17.043L35.506,17.069C36.708,18.149 36.711,18.146 36.798,18.235C36.86,18.298 37.049,18.497 37.174,18.816C37.333,19.224 37.793,20.42 38.176,21.255C38.261,21.441 38.675,22.417 39.104,22.862C39.948,23.737 41.359,23.577 41.929,23.156C42.008,23.098 42.15,22.971 42.172,22.678C42.184,22.502 42.118,22.27 42.108,22.236C41.843,21.316 40.886,20.291 40.829,20.224C40.659,20.022 40.109,19.319 39.207,18.717C38.597,18.311 38.115,18.138 37.965,18.062C37.465,17.812 37.256,17.436 37.223,17.379C37.061,17.102 37.06,17.103 37.053,17.084C37.05,17.079 37.038,17.048 37.059,17.014C37.076,16.986 37.242,16.71 37.277,16.658C37.606,16.179 38.072,16.032 38.176,15.991C39.482,15.464 40.425,14.637 41.23,13.568C41.422,13.312 41.587,13.042 41.616,12.995C41.947,12.453 42.118,12.003 42.155,11.657C42.203,11.213 42.02,11.042 41.934,10.975Z"/>
                </g>
                <g transform="matrix(5.461052,0,0,0.821377,1447.777295,33.531436)">
                    <path d="M38.661,7.617L38.656,7.617C39.163,8.303 39.276,9.9 38.141,10.722C37.38,11.272 36.113,11.768 34.248,12.45C34.006,12.539 33.786,12.686 33.609,12.873L32.483,14.084L32.399,14.084L31.273,12.873C31.096,12.683 30.876,12.539 30.634,12.45C28.769,11.768 27.502,11.272 26.741,10.722C25.606,9.9 25.719,8.306 26.226,7.617C26.618,7.087 27.636,7.344 28.897,8.257C30.21,9.21 30.988,10.243 31.465,11.432C31.601,11.772 31.841,12.061 32.159,12.246L32.443,12.413L32.727,12.246C33.045,12.061 33.285,11.772 33.422,11.432C33.898,10.241 34.676,9.208 35.989,8.257C37.252,7.344 38.268,7.087 38.661,7.617ZM38.578,7.648C38.504,7.551 38.214,7.234 37.311,7.578C36.495,7.889 35.182,8.777 34.306,9.964C33.731,10.743 33.512,11.404 33.434,11.571C33.268,11.921 33.015,12.164 32.766,12.312C32.743,12.326 32.478,12.484 32.472,12.486C32.436,12.501 32.408,12.485 32.403,12.482C32.372,12.465 32.083,12.3 32.025,12.261C31.544,11.943 31.381,11.482 31.326,11.36C30.95,10.517 30.358,9.629 29.256,8.751C29.211,8.715 27.825,7.444 26.837,7.412C26.779,7.411 26.54,7.41 26.363,7.569C26.143,7.766 25.831,8.469 25.982,9.311C26.148,10.235 26.788,10.623 26.877,10.683C27.366,11.013 27.967,11.267 28.322,11.424C29.256,11.838 30.626,12.346 30.736,12.394C30.794,12.419 31.077,12.541 31.323,12.81C31.769,13.299 31.768,13.3 31.807,13.341C32.134,13.682 32.151,13.674 32.469,14.004C33.564,12.844 33.561,12.839 33.659,12.749C33.84,12.584 34.044,12.468 34.23,12.399C35.698,11.858 37.373,11.234 38.151,10.628C39.181,9.826 39.07,8.34 38.599,7.683C38.599,7.683 38.586,7.669 38.578,7.648Z"/>
                </g>
                <g transform="matrix(5.461052,0,0,0.821377,1447.777295,33.531436)">
                    <path d="M38.661,26.485C38.268,27.016 37.252,26.758 35.989,25.845C34.676,24.895 33.898,23.862 33.422,22.671C33.285,22.33 33.045,22.042 32.727,21.856L32.443,21.69L32.159,21.856C31.841,22.042 31.601,22.33 31.465,22.671C30.988,23.859 30.21,24.893 28.897,25.845C27.636,26.758 26.618,27.016 26.226,26.485C25.719,25.797 25.606,24.202 26.741,23.381C27.502,22.831 28.769,22.335 30.634,21.653C30.876,21.564 31.096,21.419 31.273,21.229L32.399,20.019L32.483,20.019L33.609,21.229C33.786,21.417 34.006,21.564 34.248,21.653C36.113,22.335 37.38,22.831 38.141,23.381C39.276,24.202 39.163,25.799 38.656,26.485L38.661,26.485ZM38.578,26.454C38.58,26.448 38.584,26.442 38.588,26.435C38.589,26.433 38.902,26.049 38.941,25.334C38.982,24.586 38.699,23.878 38.113,23.446C37.335,22.873 35.994,22.354 34.23,21.703C34.007,21.621 33.768,21.475 33.57,21.266C33.203,20.877 32.836,20.487 32.469,20.098C32.252,20.323 32.024,20.536 31.807,20.762C31.545,21.035 31.558,21.047 31.296,21.321C31.174,21.449 30.963,21.624 30.665,21.738C30.208,21.913 29.045,22.353 28.204,22.731C28.058,22.797 27.049,23.216 26.593,23.641C25.7,24.475 25.86,25.881 26.286,26.449C26.344,26.526 26.472,26.668 26.77,26.69C26.947,26.703 27.181,26.636 27.216,26.626C28.145,26.363 29.175,25.416 29.256,25.352C30.641,24.248 31.131,23.19 31.381,22.618C31.634,22.04 32.082,21.805 32.117,21.785C32.396,21.624 32.394,21.619 32.425,21.612C32.43,21.611 32.456,21.606 32.483,21.622C32.512,21.639 32.791,21.804 32.842,21.838C33.326,22.165 33.474,22.627 33.516,22.73C34.013,23.939 34.798,24.898 35.961,25.757C36.265,25.981 36.566,26.156 36.621,26.188C37.143,26.491 37.566,26.639 37.888,26.673C38.337,26.721 38.511,26.54 38.578,26.454Z"/>
                </g>
                <g transform="matrix(5.461052,0,0,0.821377,1447.777295,33.531436)">
                    <path d="M32.426,18.363C31.695,18.363 31.103,17.776 31.103,17.052C31.103,16.328 31.695,15.742 32.426,15.742C33.156,15.742 33.748,16.328 33.748,17.052C33.748,17.776 33.156,18.363 32.426,18.363ZM32.426,18.279C32.508,18.281 32.747,18.293 33.03,18.157C33.053,18.145 33.236,18.047 33.391,17.86C33.512,17.713 33.569,17.576 33.59,17.523C33.635,17.411 33.65,17.277 33.653,17.255C33.673,17.086 33.654,16.982 33.65,16.959C33.575,16.561 33.325,16.345 33.306,16.319C33.302,16.314 33.251,16.214 33.144,16.1C33.083,16.034 33.001,15.965 32.913,15.909C32.911,15.907 32.909,15.9 32.828,15.875C32.612,15.806 32.184,15.778 31.791,16.045C31.743,16.078 31.188,16.355 31.161,17.052C31.142,17.547 31.468,17.869 31.524,17.924C31.908,18.3 32.373,18.278 32.426,18.279Z"/>
                </g>
                <g transform="matrix(5.461052,0,0,0.821377,1447.777295,33.531436)">
                    <path d="M32.426,9.09C31.817,9.09 31.324,8.601 31.324,7.998C31.324,7.394 31.817,6.905 32.426,6.905C33.034,6.905 33.528,7.394 33.528,7.998C33.528,8.601 33.034,9.09 32.426,9.09ZM32.426,9.006C32.495,9.008 32.691,9.02 32.925,8.91C32.925,8.909 33.06,8.844 33.19,8.702C33.356,8.52 33.402,8.337 33.411,8.301C33.42,8.266 33.465,8.077 33.427,7.908C33.357,7.596 33.157,7.429 33.138,7.405C33.127,7.392 33.052,7.207 32.817,7.048C32.79,7.03 32.382,6.884 31.957,7.143C31.917,7.168 31.918,7.17 31.878,7.194C31.546,7.388 31.452,7.666 31.434,7.718C31.327,8.035 31.415,8.277 31.417,8.282C31.432,8.331 31.513,8.604 31.786,8.805C32.075,9.017 32.365,9.004 32.426,9.005L32.426,9.006Z"/>
                </g>
                <g transform="matrix(5.461052,0,0,0.821377,1447.777295,33.531436)">
                    <path d="M32.426,27.2C31.817,27.2 31.324,26.711 31.324,26.107C31.324,25.504 31.817,25.015 32.426,25.015C33.034,25.015 33.528,25.504 33.528,26.107C33.528,26.711 33.034,27.2 32.426,27.2ZM32.426,27.115C32.495,27.118 32.691,27.129 32.925,27.019C32.925,27.019 33.06,26.953 33.19,26.811C33.356,26.63 33.402,26.447 33.411,26.411C33.42,26.376 33.465,26.187 33.427,26.018C33.357,25.706 33.157,25.539 33.138,25.515C33.127,25.501 33.052,25.317 32.817,25.158C32.79,25.14 32.382,24.994 31.957,25.253C31.917,25.277 31.918,25.279 31.878,25.303C31.546,25.498 31.452,25.776 31.434,25.828C31.344,26.096 31.394,26.302 31.404,26.342C31.412,26.377 31.476,26.672 31.766,26.899C32.068,27.136 32.408,27.115 32.426,27.115L32.426,27.115Z"/>
                </g>
            </g>
        </g>
    </g>
</svg>
