<?xml version="1.0" encoding="UTF-8" standalone="no"?>
<!DOCTYPE svg PUBLIC "-//W3C//DTD SVG 1.1//EN" "http://www.w3.org/Graphics/SVG/1.1/DTD/svg11.dtd">
<svg width="100%" height="100%" viewBox="0 0 988 1087" version="1.1" xmlns="http://www.w3.org/2000/svg" xmlns:xlink="http://www.w3.org/1999/xlink" xml:space="preserve" xmlns:serif="http://www.serif.com/" style="fill-rule:evenodd;clip-rule:evenodd;stroke-linejoin:round;stroke-miterlimit:2;">
    <g transform="matrix(1,0,0,1,-14385,-5935)">
        <g id="Artboard5" transform="matrix(0.722753,0,0,1,3988.065911,0)">
            <rect x="14385.176" y="5935" width="1366.176" height="1086.671" style="fill:none;"/>
            <g transform="matrix(-1.649062,-0,0,-1.191865,21491.630475,7862.046931)">
                <g transform="matrix(0,2.657198,-2.657198,0,4266.616415,776.485642)">
                    <path d="M75.446,97.272C71.782,99.956 73.561,106.908 79.865,115.549C86.425,124.537 93.558,129.861 101.777,133.118C104.129,134.053 106.12,135.697 107.402,137.868L108.548,139.814L107.402,141.759C106.12,143.931 104.129,145.574 101.777,146.509C93.573,149.767 86.44,155.09 79.865,164.078C73.561,172.704 71.782,179.671 75.446,182.356C80.197,185.824 91.205,186.593 96.876,178.827C100.676,173.624 104.099,164.953 108.804,152.195C109.422,150.536 110.418,149.028 111.73,147.821L120.084,140.115L120.084,139.542L111.73,131.836C110.433,130.63 109.422,129.122 108.804,127.463C104.099,114.705 100.676,106.033 96.876,100.831C91.205,93.064 80.181,93.833 75.446,97.302L75.446,97.272Z" style="fill-rule:nonzero;"/>
                </g>
                <g transform="matrix(0,2.657198,-2.657198,0,4266.616415,776.485642)">
                    <path d="M205.696,97.272C209.361,99.956 207.581,106.908 201.278,115.549C194.718,124.537 187.585,129.861 179.366,133.118C177.013,134.053 175.023,135.697 173.741,137.868L172.595,139.814L173.741,141.759C175.023,143.931 177.013,145.574 179.366,146.509C187.57,149.767 194.703,155.09 201.278,164.078C207.581,172.704 209.361,179.671 205.696,182.356C200.946,185.824 189.937,186.593 184.267,178.827C180.467,173.624 177.043,164.953 172.338,152.195C171.72,150.536 170.725,149.028 169.413,147.821L161.058,140.115L161.058,139.542L169.413,131.836C170.71,130.63 171.72,129.122 172.338,127.463C177.043,114.705 180.467,106.033 184.267,100.831C189.937,93.064 200.961,93.833 205.696,97.302L205.696,97.272Z" style="fill-rule:nonzero;"/>
                </g>
                <g transform="matrix(0,2.657198,-2.657198,0,4266.616415,776.485642)">
                    <path d="M183.091,74.666C180.406,71.001 173.454,72.781 164.813,79.085C155.825,85.645 150.502,92.778 147.244,100.997C146.309,103.349 144.666,105.34 142.494,106.622L140.549,107.768L138.603,106.622C136.432,105.34 134.788,103.349 133.853,100.997C130.596,92.793 125.272,85.66 116.284,79.085C107.658,72.781 100.691,71.001 98.007,74.666C94.538,79.416 93.769,90.425 101.535,96.095C106.738,99.896 115.41,103.319 128.168,108.024C129.826,108.642 131.335,109.638 132.541,110.95L140.247,119.304L140.82,119.304L148.526,110.95C149.733,109.653 151.241,108.642 152.9,108.024C165.658,103.319 174.329,99.896 179.532,96.095C187.298,90.425 186.529,79.401 183.061,74.666L183.091,74.666Z" style="fill-rule:nonzero;"/>
                </g>
                <g transform="matrix(0,2.657198,-2.657198,0,4266.616415,776.485642)">
                    <path d="M183.091,204.917C180.406,208.581 173.454,206.802 164.813,200.498C155.825,193.938 150.502,186.805 147.244,178.586C146.309,176.233 144.666,174.243 142.494,172.961L140.549,171.815L138.603,172.961C136.432,174.243 134.788,176.233 133.853,178.586C130.596,186.79 125.272,193.923 116.284,200.498C107.658,206.802 100.691,208.581 98.007,204.917C94.538,200.166 93.769,189.157 101.535,183.487C106.738,179.687 115.41,176.264 128.168,171.559C129.826,170.94 131.335,169.945 132.541,168.633L140.247,160.278L140.82,160.278L148.526,168.633C149.733,169.93 151.241,170.94 152.9,171.559C165.658,176.264 174.329,179.687 179.532,183.487C187.298,189.157 186.529,200.181 183.061,204.917L183.091,204.917Z" style="fill-rule:nonzero;"/>
                </g>
            </g>
        </g>
    </g>
</svg>
