<?xml version="1.0" encoding="UTF-8" standalone="no"?>
<!DOCTYPE svg PUBLIC "-//W3C//DTD SVG 1.1//EN" "http://www.w3.org/Graphics/SVG/1.1/DTD/svg11.dtd">
<svg width="100%" height="100%" viewBox="0 0 926 193" version="1.1" xmlns="http://www.w3.org/2000/svg" xmlns:xlink="http://www.w3.org/1999/xlink" xml:space="preserve" xmlns:serif="http://www.serif.com/" style="fill-rule:evenodd;clip-rule:evenodd;stroke-linejoin:round;stroke-miterlimit:2;">
    <g transform="matrix(1,0,0,1,-7470.618899,-4737.027616)">
        <g id="Artboard12" transform="matrix(1.328599,0,0,0.934667,-2077.620204,312.622587)">
            <rect x="7186.698" y="4733.67" width="696.605" height="205.491" style="fill:none;"/>
            <g transform="matrix(0.631073,0,0,0.940115,6964.040306,4529.515341)">
                <g transform="matrix(1.23098,0,0,1.17459,-7582.010036,-3211.986259)">
                    <path d="M7051.968,3055.196C7054.756,3055.196 7058.381,3054.917 7060.472,3054.22L7060.472,3052.548C7059.775,3052.687 7059.078,3052.687 7058.241,3052.687C7053.502,3052.687 7050.714,3048.087 7044.023,3031.359C7037.332,3014.213 7034.683,3005.71 7017.537,3003.479C7035.659,3001.388 7045.138,2991.491 7045.138,2978.387C7045.138,2965.981 7036.774,2956.641 7008.476,2956.641L6981.014,2956.641L6981.014,2958.453C6985.336,2959.708 6986.59,2962.914 6986.59,2974.345L6986.59,3036.517C6986.59,3047.947 6985.336,3051.154 6981.014,3052.408L6981.014,3054.22L7003.597,3054.22L7003.597,3052.408C6999.276,3051.154 6998.021,3047.947 6998.021,3036.517L6998.021,3003.897L7006.943,3003.897C7023.67,3003.897 7024.786,3013.655 7032.871,3032.892C7039.004,3047.39 7041.235,3055.196 7051.968,3055.196ZM6998.021,3001.806L6998.021,2959.011C7000.251,2958.872 7002.482,2958.732 7004.573,2958.732C7025.204,2958.732 7033.289,2969.187 7033.289,2981.594C7033.289,2993.443 7025.761,3001.806 7009.731,3001.806L6998.021,3001.806Z" style="fill-rule:nonzero;"/>
                </g>
                <g transform="matrix(1.23098,0,0,1.17459,-7585.010036,-3211.986259)">
                    <path d="M7184.676,3055.614C7201.125,3055.614 7221.059,3042.79 7221.059,3018.953C7221.059,2994.14 7201.962,2983.545 7184.676,2983.545C7165.578,2983.545 7148.154,2998.6 7148.154,3020.346C7148.154,3044.602 7166.972,3055.614 7184.676,3055.614ZM7158.887,3012.401C7158.887,2998.461 7165.3,2986.751 7179.518,2986.194C7197.78,2985.218 7210.465,3009.195 7210.465,3027.177C7210.465,3040.699 7203.774,3052.687 7188.858,3052.687C7170.318,3052.687 7158.887,3030.104 7158.887,3012.401Z" style="fill-rule:nonzero;"/>
                </g>
                <g transform="matrix(1.23098,0,0,1.17459,-7586.010036,-3211.986259)">
                    <path d="M7253.4,3055.614C7261.624,3055.614 7268.734,3049.62 7274.728,3042.79L7273.473,3041.535C7268.873,3046.972 7263.994,3048.784 7260.091,3048.784C7254.097,3048.784 7250.194,3045.159 7250.194,3035.68L7250.194,2986.473L7270.685,2986.473L7271.382,2984.521L7250.194,2984.521L7250.194,2967.375L7248.242,2967.375L7230.399,2984.521L7230.399,2986.473L7239.32,2986.473L7239.32,3035.68C7239.32,3050.178 7244.618,3055.614 7253.4,3055.614Z" style="fill-rule:nonzero;"/>
                </g>
                <g transform="matrix(1.23098,0,0,1.17459,-7586.010036,-3211.986259)">
                    <path d="M7306.511,3055.475C7323.239,3055.336 7332.021,3045.438 7332.021,3033.729C7332.021,3019.789 7319.196,3016.583 7308.602,3013.098C7297.589,3009.473 7288.668,3005.849 7288.668,2997.067C7288.668,2989.958 7294.801,2985.357 7304.28,2985.357C7314.178,2985.357 7323.099,2991.77 7327.56,3001.806L7328.954,3001.528L7328.396,2987.309C7324.075,2985.497 7315.85,2983.545 7306.79,2983.545C7290.619,2983.545 7281.419,2992.049 7281.419,3003.061C7281.419,3015.746 7290.898,3019.371 7304.141,3023.553C7314.875,3027.038 7324.633,3030.244 7324.633,3040.281C7324.633,3048.087 7318.22,3053.245 7309.577,3053.245C7296.892,3053.105 7286.995,3045.159 7281.14,3031.917L7279.886,3032.195L7281.14,3049.063C7285.74,3052.129 7295.359,3055.475 7306.511,3055.475Z" style="fill-rule:nonzero;"/>
                </g>
                <g transform="matrix(4.544231,0,0,4.336066,1010.719302,259.170479)">
                    <path d="M22.928,10.892C22.393,11.281 22.653,12.288 23.574,13.54C24.533,14.842 25.576,15.613 26.777,16.085C27.12,16.22 27.411,16.458 27.599,16.773L27.766,17.055L27.599,17.336C27.411,17.651 27.12,17.889 26.777,18.024C25.578,18.496 24.535,19.267 23.574,20.569C22.653,21.819 22.393,22.828 22.928,23.217C23.623,23.72 25.232,23.831 26.06,22.706C26.616,21.952 27.116,20.696 27.804,18.848C27.894,18.608 28.04,18.389 28.231,18.215L29.452,17.098L29.452,17.015L28.231,15.899C28.042,15.724 27.894,15.506 27.804,15.265C27.116,13.417 26.616,12.161 26.06,11.408C25.232,10.283 23.62,10.394 22.928,10.896L22.928,10.892Z" style="fill-rule:nonzero;"/>
                </g>
                <g transform="matrix(4.544231,0,0,4.336066,1010.719302,259.170479)">
                    <path d="M41.965,10.892C42.5,11.281 42.24,12.288 41.319,13.54C40.36,14.842 39.318,15.613 38.116,16.085C37.773,16.22 37.482,16.458 37.294,16.773L37.127,17.055L37.294,17.336C37.482,17.651 37.773,17.889 38.116,18.024C39.315,18.496 40.358,19.267 41.319,20.569C42.24,21.819 42.5,22.828 41.965,23.217C41.27,23.72 39.661,23.831 38.833,22.706C38.277,21.952 37.777,20.696 37.089,18.848C36.999,18.608 36.853,18.389 36.662,18.215L35.441,17.098L35.441,17.015L36.662,15.899C36.851,15.724 36.999,15.506 37.089,15.265C37.777,13.417 38.277,12.161 38.833,11.408C39.661,10.283 41.273,10.394 41.965,10.896L41.965,10.892Z" style="fill-rule:nonzero;"/>
                </g>
                <g transform="matrix(4.544231,0,0,4.336066,1010.719302,259.170479)">
                    <path d="M38.661,7.617C38.268,7.087 37.252,7.344 35.989,8.257C34.676,9.208 33.898,10.241 33.422,11.432C33.285,11.772 33.045,12.061 32.727,12.246L32.443,12.412L32.159,12.246C31.841,12.061 31.601,11.772 31.465,11.432C30.988,10.243 30.21,9.21 28.897,8.257C27.636,7.344 26.618,7.087 26.226,7.617C25.719,8.306 25.606,9.9 26.741,10.722C27.502,11.272 28.769,11.768 30.634,12.45C30.876,12.539 31.096,12.683 31.273,12.873L32.399,14.084L32.483,14.084L33.609,12.873C33.785,12.685 34.006,12.539 34.248,12.45C36.113,11.768 37.38,11.272 38.141,10.722C39.276,9.9 39.163,8.303 38.656,7.617L38.661,7.617Z" style="fill-rule:nonzero;"/>
                </g>
                <g transform="matrix(4.544231,0,0,4.336066,1010.719302,259.170479)">
                    <path d="M38.661,26.485C38.268,27.016 37.252,26.758 35.989,25.845C34.676,24.895 33.898,23.862 33.422,22.671C33.285,22.33 33.045,22.042 32.727,21.856L32.443,21.69L32.159,21.856C31.841,22.042 31.601,22.33 31.465,22.671C30.988,23.859 30.21,24.893 28.897,25.845C27.636,26.758 26.618,27.016 26.226,26.485C25.719,25.797 25.606,24.202 26.741,23.381C27.502,22.831 28.769,22.335 30.634,21.653C30.876,21.564 31.096,21.419 31.273,21.229L32.399,20.019L32.483,20.019L33.609,21.229C33.785,21.417 34.006,21.564 34.248,21.653C36.113,22.335 37.38,22.831 38.141,23.381C39.276,24.202 39.163,25.799 38.656,26.485L38.661,26.485Z" style="fill-rule:nonzero;"/>
                </g>
                <g transform="matrix(4.544231,0,0,4.336066,1010.719302,259.170479)">
                    <path d="M32.426,18.363C33.156,18.363 33.748,17.776 33.748,17.052C33.748,16.328 33.156,15.742 32.426,15.742C31.695,15.742 31.103,16.328 31.103,17.052C31.103,17.776 31.695,18.363 32.426,18.363Z" style="fill-rule:nonzero;"/>
                </g>
                <g transform="matrix(4.544231,0,0,4.336066,1010.719302,259.170479)">
                    <path d="M32.426,9.09C33.034,9.09 33.528,8.601 33.528,7.998C33.528,7.394 33.034,6.905 32.426,6.905C31.817,6.905 31.324,7.394 31.324,7.998C31.324,8.601 31.817,9.09 32.426,9.09Z" style="fill-rule:nonzero;"/>
                </g>
                <g transform="matrix(4.544231,0,0,4.336066,1010.719302,259.170479)">
                    <path d="M32.426,27.2C33.034,27.2 33.528,26.71 33.528,26.107C33.528,25.504 33.034,25.015 32.426,25.015C31.817,25.015 31.324,25.504 31.324,26.107C31.324,26.71 31.817,27.2 32.426,27.2Z" style="fill-rule:nonzero;"/>
                </g>
            </g>
            <g transform="matrix(0.525126,0,0,0.782285,6851.691468,4573.529036)">
                <g transform="matrix(5.461052,0,0,5.210887,659.174912,255.196396)">
                    <path d="M22.928,10.892C22.393,11.281 22.653,12.288 23.574,13.54C24.533,14.842 25.576,15.613 26.777,16.085C27.12,16.22 27.411,16.458 27.599,16.773L27.766,17.055L27.599,17.336C27.411,17.651 27.12,17.889 26.777,18.024C25.578,18.496 24.535,19.267 23.574,20.569C22.653,21.819 22.393,22.828 22.928,23.217C23.623,23.72 25.232,23.831 26.06,22.706C26.616,21.952 27.116,20.696 27.804,18.848C27.894,18.608 28.04,18.389 28.231,18.215L29.452,17.098L29.452,17.015L28.231,15.899C28.042,15.724 27.894,15.506 27.804,15.265C27.116,13.417 26.616,12.161 26.06,11.408C25.232,10.283 23.62,10.394 22.928,10.896L22.928,10.892Z" style="fill-rule:nonzero;"/>
                </g>
                <g transform="matrix(5.461052,0,0,5.210887,659.174912,255.196396)">
                    <path d="M41.965,10.892C42.5,11.281 42.24,12.288 41.319,13.54C40.36,14.842 39.318,15.613 38.116,16.085C37.773,16.22 37.482,16.458 37.294,16.773L37.127,17.055L37.294,17.336C37.482,17.651 37.773,17.889 38.116,18.024C39.315,18.496 40.358,19.267 41.319,20.569C42.24,21.819 42.5,22.828 41.965,23.217C41.27,23.72 39.661,23.831 38.833,22.706C38.277,21.952 37.777,20.696 37.089,18.848C36.999,18.608 36.853,18.389 36.662,18.215L35.441,17.098L35.441,17.015L36.662,15.899C36.851,15.724 36.999,15.506 37.089,15.265C37.777,13.417 38.277,12.161 38.833,11.408C39.661,10.283 41.273,10.394 41.965,10.896L41.965,10.892Z" style="fill-rule:nonzero;"/>
                </g>
                <g transform="matrix(5.461052,0,0,5.210887,659.174912,255.196396)">
                    <path d="M38.661,7.617C38.268,7.087 37.252,7.344 35.989,8.257C34.676,9.208 33.898,10.241 33.422,11.432C33.285,11.772 33.045,12.061 32.727,12.246L32.443,12.412L32.159,12.246C31.841,12.061 31.601,11.772 31.465,11.432C30.988,10.243 30.21,9.21 28.897,8.257C27.636,7.344 26.618,7.087 26.226,7.617C25.719,8.306 25.606,9.9 26.741,10.722C27.502,11.272 28.769,11.768 30.634,12.45C30.876,12.539 31.096,12.683 31.273,12.873L32.399,14.084L32.483,14.084L33.609,12.873C33.785,12.685 34.006,12.539 34.248,12.45C36.113,11.768 37.38,11.272 38.141,10.722C39.276,9.9 39.163,8.303 38.656,7.617L38.661,7.617Z" style="fill-rule:nonzero;"/>
                </g>
                <g transform="matrix(5.461052,0,0,5.210887,659.174912,255.196396)">
                    <path d="M38.661,26.485C38.268,27.016 37.252,26.758 35.989,25.845C34.676,24.895 33.898,23.862 33.422,22.671C33.285,22.33 33.045,22.042 32.727,21.856L32.443,21.69L32.159,21.856C31.841,22.042 31.601,22.33 31.465,22.671C30.988,23.859 30.21,24.893 28.897,25.845C27.636,26.758 26.618,27.016 26.226,26.485C25.719,25.797 25.606,24.202 26.741,23.381C27.502,22.831 28.769,22.335 30.634,21.653C30.876,21.564 31.096,21.419 31.273,21.229L32.399,20.019L32.483,20.019L33.609,21.229C33.785,21.417 34.006,21.564 34.248,21.653C36.113,22.335 37.38,22.831 38.141,23.381C39.276,24.202 39.163,25.799 38.656,26.485L38.661,26.485Z" style="fill-rule:nonzero;"/>
                </g>
                <g transform="matrix(5.461052,0,0,5.210887,659.174912,255.196396)">
                    <path d="M32.426,18.363C33.156,18.363 33.748,17.776 33.748,17.052C33.748,16.328 33.156,15.742 32.426,15.742C31.695,15.742 31.103,16.328 31.103,17.052C31.103,17.776 31.695,18.363 32.426,18.363Z" style="fill-rule:nonzero;"/>
                </g>
                <g transform="matrix(5.461052,0,0,5.210887,659.174912,255.196396)">
                    <path d="M32.426,9.09C33.034,9.09 33.528,8.601 33.528,7.998C33.528,7.394 33.034,6.905 32.426,6.905C31.817,6.905 31.324,7.394 31.324,7.998C31.324,8.601 31.817,9.09 32.426,9.09Z" style="fill-rule:nonzero;"/>
                </g>
                <g transform="matrix(5.461052,0,0,5.210887,659.174912,255.196396)">
                    <path d="M32.426,27.2C33.034,27.2 33.528,26.71 33.528,26.107C33.528,25.504 33.034,25.015 32.426,25.015C31.817,25.015 31.324,25.504 31.324,26.107C31.324,26.71 31.817,27.2 32.426,27.2Z" style="fill-rule:nonzero;"/>
                </g>
            </g>
            <g transform="matrix(2.867741,0,0,4.076401,7197.841454,4773.16546)">
                <path d="M0,26.125C1.151,25.782 1.534,24.908 1.534,21.791L1.534,4.83C1.534,1.71 1.151,0.837 0,0.494L0,0L6.215,0L6.215,0.494C5.025,0.837 4.681,1.71 4.681,4.828L4.681,14.486L14.734,4.295C17.152,1.822 17.495,0.568 15.999,0.341L15.999,0L21.333,0L21.333,0.494C20.105,0.837 18.494,1.217 16.308,3.46L8.135,11.751L9.017,11.713C14.734,11.333 15.616,13.387 18.225,19.89C20.182,24.757 21.026,26.088 22.254,26.088C22.483,26.088 22.677,26.088 22.906,26.05L22.906,26.544C22.254,26.734 21.41,26.811 20.605,26.811C17.804,26.811 17.114,25.174 15.272,20.727C12.739,14.566 12.164,12.246 8.289,12.36L7.522,12.36L4.684,15.25L4.684,21.791C4.684,24.908 5.03,25.784 6.218,26.125L6.218,26.619L0,26.619L0,26.125Z" style="fill-rule:nonzero;"/>
            </g>
            <g transform="matrix(2.867741,0,0,4.076401,7197.841454,4773.16546)">
                <path d="M44.067,26.125C45.257,25.782 45.601,24.908 45.601,21.791L45.601,13.044C45.601,10.383 45.103,10.001 44.067,9.544L44.067,9.127L48.248,7.301L48.594,7.567L48.594,12.321C49.209,10.837 50.245,9.544 51.396,8.707C52.586,7.834 53.928,7.338 55.768,7.338C57.302,7.338 58.261,7.718 58.261,8.365C58.261,9.201 57.417,10.532 56.035,10.532C54.999,10.532 53.503,10.112 51.239,9.468C50.126,10.267 48.744,12.395 48.63,14.221L48.592,14.221L48.592,21.788C48.592,24.906 48.976,25.782 50.126,26.123L50.126,26.616L44.065,26.616L44.065,26.123L44.067,26.125Z" style="fill-rule:nonzero;"/>
            </g>
            <g transform="matrix(2.867741,0,0,4.076401,7197.841454,4773.16546)">
                <path d="M57.45,17.682C57.45,11.484 62.169,7.338 67.54,7.338C72.374,7.338 75.175,10.455 75.289,14.068L60.289,14.068C60.212,14.639 60.174,15.209 60.174,15.818C60.174,21.028 63.436,24.602 68.424,24.602C71.377,24.602 73.489,23.272 75.254,21.295L75.6,21.638C73.643,24.299 70.65,26.999 66.546,26.999C62.442,26.999 57.452,23.956 57.452,17.682L57.45,17.682ZM72.219,13.575C71.836,11.028 69.764,8.022 66.273,8.022C63.011,7.985 61.016,10.379 60.404,13.575L72.219,13.575Z" style="fill-rule:nonzero;"/>
            </g>
            <g transform="matrix(2.867741,0,0,4.076401,7197.841454,4773.16546)">
                <path d="M77.084,26.125C78.274,25.782 78.618,24.908 78.618,21.791L78.618,13.044C78.618,10.383 78.157,10.001 77.084,9.544L77.084,9.127L81.304,7.301L81.611,7.567L81.611,10.837C83.837,9.05 86.79,7.34 89.743,7.34C93.504,7.34 95.805,9.507 95.805,13.957L95.805,21.791C95.805,24.908 96.188,25.784 97.338,26.125L97.338,26.618L91.277,26.618L91.277,26.125C92.468,25.782 92.811,24.908 92.811,21.791L92.811,14.717C92.811,10.763 91.123,8.594 87.747,8.594C85.637,8.594 83.566,9.848 81.608,11.447L81.608,21.791C81.608,24.908 81.992,25.784 83.142,26.125L83.142,26.618L77.081,26.618L77.081,26.125L77.084,26.125Z" style="fill-rule:nonzero;"/>
            </g>
            <g transform="matrix(2.867741,0,0,4.076401,7197.841454,4773.16546)">
                <path d="M111.742,7.604L111.742,8.098C113.084,8.365 113.161,9.581 112.088,12.052L107.369,22.929L102.65,12.052C101.423,9.199 101.116,8.439 102.267,8.098L102.267,7.604L96.472,7.604L96.472,8.098C97.279,8.441 98.238,9.201 99.426,12.052L105.718,26.693C105.703,26.726 105.685,26.761 105.67,26.793L105.299,27.521C105.264,27.586 105.231,27.652 105.196,27.717C103.84,30.142 102.403,30.745 98.333,30.789C98.333,30.789 97.764,30.802 97.396,30.802C95.977,30.802 95.018,32.172 95.018,32.895C95.018,33.832 96.993,33.941 97.094,33.95C101.385,34.315 103.519,32.785 105.449,28.307L105.868,27.462C106.152,26.911 106.437,26.317 106.719,25.67L112.665,12.056C113.93,9.203 114.929,8.443 116.002,8.102L116.002,7.609L111.744,7.609L111.742,7.604Z" style="fill-rule:nonzero;"/>
            </g>
            <g transform="matrix(2.867741,0,0,4.076401,7197.841454,4773.16546)">
                <path d="M55.541,0.286C55.235,-0.129 54.439,0.072 53.452,0.786C52.425,1.529 51.817,2.337 51.444,3.268C51.338,3.535 51.151,3.76 50.902,3.906L50.679,4.037L50.457,3.906C50.208,3.76 50.02,3.535 49.914,3.268C49.542,2.337 48.934,1.529 47.907,0.786C46.922,0.072 46.124,-0.129 45.817,0.286C45.42,0.824 45.332,2.071 46.221,2.715C46.816,3.146 47.805,3.535 49.264,4.065C49.454,4.135 49.626,4.249 49.765,4.395L50.646,5.341L50.71,5.341L51.592,4.395C51.728,4.247 51.903,4.133 52.092,4.065C53.551,3.532 54.543,3.146 55.136,2.715C56.024,2.073 55.936,0.824 55.539,0.286L55.541,0.286Z" style="fill-rule:nonzero;"/>
            </g>
            <g transform="matrix(0.631073,0,0,0.89705,2819.074689,1969.21501)">
                <path d="M7468.992,3294.085C7468.435,3294.744 7468.047,3295.623 7467.279,3296.007C7467.263,3296.015 7464.64,3296.213 7464.632,3296.206C7463.963,3295.626 7463.026,3295.251 7462.63,3294.459C7462.516,3294.231 7461.897,3292.992 7462.642,3291.275C7464.021,3288.095 7466.264,3285.038 7479.672,3259.165C7484.593,3249.669 7485.698,3246.404 7486.742,3243.798C7491.353,3232.288 7491.251,3232.251 7495.2,3220.498C7495.363,3220.011 7495.368,3220.017 7496.57,3216.736C7496.974,3215.632 7497.01,3215.651 7497.408,3214.909C7503.995,3202.607 7508.561,3195.006 7511.111,3189.459C7511.214,3189.235 7511.361,3189.027 7511.419,3188.787C7511.435,3188.723 7512.35,3181.85 7512.505,3180.59C7512.564,3180.111 7512.859,3177.716 7513.221,3174.6C7513.295,3173.957 7513.235,3173.284 7513.442,3172.671C7513.492,3172.524 7515.171,3169.558 7515.323,3169.289C7515.43,3169.101 7519.938,3161.708 7523.965,3154.851C7524.898,3153.263 7529.883,3141.917 7529.897,3141.881C7530.149,3141.246 7532.672,3134.487 7533.798,3131.172C7536.73,3122.539 7536.976,3121.348 7537.157,3120.469C7539.347,3109.863 7539.573,3105.446 7539.659,3105.322C7540.169,3104.59 7540.449,3103.622 7541.191,3103.127C7541.209,3103.116 7543.765,3102.593 7543.774,3102.599C7544.518,3103.093 7545.506,3103.346 7546.002,3104.09C7546.986,3105.565 7546.789,3105.704 7546.296,3107.409C7544.358,3114.12 7541.74,3121.325 7541.305,3122.521C7540.841,3123.799 7541.167,3123.892 7536.52,3138.826C7535.387,3142.466 7535.327,3142.443 7534.316,3146.124C7532.183,3153.893 7531.379,3156.213 7531.112,3157.555C7529.419,3166.087 7528.552,3169.902 7527.678,3173.782C7527.515,3174.503 7526.998,3176.367 7526.597,3177.836C7526.47,3178.301 7526.374,3178.247 7525.34,3179.578C7524.404,3180.784 7519.236,3187.396 7517.316,3189.833C7517.027,3190.199 7516.699,3190.537 7516.448,3190.931C7515.882,3191.82 7509.599,3210.982 7508.014,3215.24C7507.868,3215.631 7506.235,3220.021 7506.186,3220.13C7505.432,3221.812 7498.451,3233.445 7497.762,3234.593C7495.521,3238.327 7495.424,3238.677 7489.652,3249.118C7486.911,3254.076 7485.677,3257.197 7477.858,3274.326C7477.165,3275.843 7471.214,3289.166 7470.637,3290.457C7469.635,3292.7 7469.477,3293.113 7469.023,3294.097L7468.992,3294.085Z"/>
            </g>
        </g>
    </g>
</svg>
