<?xml version="1.0" encoding="UTF-8" standalone="no"?>
<!DOCTYPE svg PUBLIC "-//W3C//DTD SVG 1.1//EN" "http://www.w3.org/Graphics/SVG/1.1/DTD/svg11.dtd">
<svg width="100%" height="100%" viewBox="0 0 697 206" version="1.1" xmlns="http://www.w3.org/2000/svg" xmlns:xlink="http://www.w3.org/1999/xlink" xml:space="preserve" xmlns:serif="http://www.serif.com/" style="fill-rule:evenodd;clip-rule:evenodd;stroke-linejoin:round;stroke-miterlimit:2;">
    <g transform="matrix(1,0,0,1,-7186.697711,-4478.178639)">
        <g id="Artboard10" transform="matrix(0.362815,0,0,0.181554,4800.883294,3749.087047)">
            <rect x="6575.845" y="4015.845" width="1920" height="1131.849" style="fill:none;"/>
            <g transform="matrix(15.051895,0,0,49.497799,1351.684686,4083.631263)">
                <g transform="matrix(1,0,0,0.607694,354.179471,0)">
                    <path d="M22.928,10.892C22.393,11.281 22.653,12.288 23.574,13.54C24.533,14.842 25.576,15.613 26.777,16.085C27.12,16.22 27.411,16.458 27.599,16.773L27.766,17.055L27.599,17.336C27.411,17.651 27.12,17.889 26.777,18.024C25.578,18.496 24.535,19.267 23.574,20.569C22.653,21.819 22.393,22.828 22.928,23.217C23.623,23.72 25.232,23.831 26.06,22.706C26.616,21.952 27.116,20.696 27.804,18.848C27.894,18.608 28.04,18.389 28.231,18.215L29.452,17.098L29.452,17.015L28.231,15.899C28.042,15.724 27.894,15.506 27.804,15.265C27.116,13.417 26.616,12.161 26.06,11.408C25.232,10.283 23.62,10.394 22.928,10.896L22.928,10.892Z" style="fill-rule:nonzero;"/>
                </g>
                <g transform="matrix(1,0,0,0.607694,354.179471,0)">
                    <path d="M41.965,10.892C42.5,11.281 42.24,12.288 41.319,13.54C40.36,14.842 39.318,15.613 38.116,16.085C37.773,16.22 37.482,16.458 37.294,16.773L37.127,17.055L37.294,17.336C37.482,17.651 37.773,17.889 38.116,18.024C39.315,18.496 40.358,19.267 41.319,20.569C42.24,21.819 42.5,22.828 41.965,23.217C41.27,23.72 39.661,23.831 38.833,22.706C38.277,21.952 37.777,20.696 37.089,18.848C36.999,18.608 36.853,18.389 36.662,18.215L35.441,17.098L35.441,17.015L36.662,15.899C36.851,15.724 36.999,15.506 37.089,15.265C37.777,13.417 38.277,12.161 38.833,11.408C39.661,10.283 41.273,10.394 41.965,10.896L41.965,10.892Z" style="fill-rule:nonzero;"/>
                </g>
                <g transform="matrix(1,0,0,0.607694,354.179471,0)">
                    <path d="M38.661,7.617C38.268,7.087 37.252,7.344 35.989,8.257C34.676,9.208 33.898,10.241 33.422,11.432C33.285,11.772 33.045,12.061 32.727,12.246L32.443,12.412L32.159,12.246C31.841,12.061 31.601,11.772 31.465,11.432C30.988,10.243 30.21,9.21 28.897,8.257C27.636,7.344 26.618,7.087 26.226,7.617C25.719,8.306 25.606,9.9 26.741,10.722C27.502,11.272 28.769,11.768 30.634,12.45C30.876,12.539 31.096,12.683 31.273,12.873L32.399,14.084L32.483,14.084L33.609,12.873C33.785,12.685 34.006,12.539 34.248,12.45C36.113,11.768 37.38,11.272 38.141,10.722C39.276,9.9 39.163,8.303 38.656,7.617L38.661,7.617Z" style="fill-rule:nonzero;"/>
                </g>
                <g transform="matrix(1,0,0,0.607694,354.179471,0)">
                    <path d="M38.661,26.485C38.268,27.016 37.252,26.758 35.989,25.845C34.676,24.895 33.898,23.862 33.422,22.671C33.285,22.33 33.045,22.042 32.727,21.856L32.443,21.69L32.159,21.856C31.841,22.042 31.601,22.33 31.465,22.671C30.988,23.859 30.21,24.893 28.897,25.845C27.636,26.758 26.618,27.016 26.226,26.485C25.719,25.797 25.606,24.202 26.741,23.381C27.502,22.831 28.769,22.335 30.634,21.653C30.876,21.564 31.096,21.419 31.273,21.229L32.399,20.019L32.483,20.019L33.609,21.229C33.785,21.417 34.006,21.564 34.248,21.653C36.113,22.335 37.38,22.831 38.141,23.381C39.276,24.202 39.163,25.799 38.656,26.485L38.661,26.485Z" style="fill-rule:nonzero;"/>
                </g>
                <g transform="matrix(1,0,0,0.607694,354.179471,0)">
                    <path d="M32.426,18.363C33.156,18.363 33.748,17.776 33.748,17.052C33.748,16.328 33.156,15.742 32.426,15.742C31.695,15.742 31.103,16.328 31.103,17.052C31.103,17.776 31.695,18.363 32.426,18.363Z" style="fill-rule:nonzero;"/>
                </g>
                <g transform="matrix(1,0,0,0.607694,354.179471,0)">
                    <path d="M32.426,9.09C33.034,9.09 33.528,8.601 33.528,7.998C33.528,7.394 33.034,6.905 32.426,6.905C31.817,6.905 31.324,7.394 31.324,7.998C31.324,8.601 31.817,9.09 32.426,9.09Z" style="fill-rule:nonzero;"/>
                </g>
                <g transform="matrix(1,0,0,0.607694,354.179471,0)">
                    <path d="M32.426,27.2C33.034,27.2 33.528,26.71 33.528,26.107C33.528,25.504 33.034,25.015 32.426,25.015C31.817,25.015 31.324,25.504 31.324,26.107C31.324,26.71 31.817,27.2 32.426,27.2Z" style="fill-rule:nonzero;"/>
                </g>
                <g transform="matrix(1,0,0,0.607694,354.179471,0)">
                    <path d="M0,26.125C1.151,25.782 1.534,24.908 1.534,21.791L1.534,4.83C1.534,1.71 1.151,0.837 0,0.494L0,0L6.215,0L6.215,0.494C5.025,0.837 4.681,1.71 4.681,4.828L4.681,14.486L14.734,4.295C17.152,1.822 17.495,0.568 15.999,0.341L15.999,0L21.333,0L21.333,0.494C20.105,0.837 18.494,1.217 16.308,3.46L8.135,11.751L9.017,11.713C14.734,11.333 15.616,13.387 18.225,19.89C20.182,24.757 21.026,26.088 22.254,26.088C22.483,26.088 22.677,26.088 22.906,26.05L22.906,26.544C22.254,26.734 21.41,26.811 20.605,26.811C17.804,26.811 17.114,25.174 15.272,20.727C12.739,14.566 12.164,12.246 8.289,12.36L7.522,12.36L4.684,15.25L4.684,21.791C4.684,24.908 5.03,25.784 6.218,26.125L6.218,26.619L0,26.619L0,26.125Z" style="fill-rule:nonzero;"/>
                </g>
                <g transform="matrix(1,0,0,0.607694,354.179471,0)">
                    <path d="M44.067,26.125C45.257,25.782 45.601,24.908 45.601,21.791L45.601,13.044C45.601,10.383 45.103,10.001 44.067,9.544L44.067,9.127L48.248,7.301L48.594,7.567L48.594,12.321C49.209,10.837 50.245,9.544 51.396,8.707C52.586,7.834 53.928,7.338 55.768,7.338C57.302,7.338 58.261,7.718 58.261,8.365C58.261,9.201 57.417,10.532 56.035,10.532C54.999,10.532 53.503,10.112 51.239,9.468C50.126,10.267 48.744,12.395 48.63,14.221L48.592,14.221L48.592,21.788C48.592,24.906 48.976,25.782 50.126,26.123L50.126,26.616L44.065,26.616L44.065,26.123L44.067,26.125Z" style="fill-rule:nonzero;"/>
                </g>
                <g transform="matrix(1,0,0,0.607694,354.179471,0)">
                    <path d="M57.45,17.682C57.45,11.484 62.169,7.338 67.54,7.338C72.374,7.338 75.175,10.455 75.289,14.068L60.289,14.068C60.212,14.639 60.174,15.209 60.174,15.818C60.174,21.028 63.436,24.602 68.424,24.602C71.377,24.602 73.489,23.272 75.254,21.295L75.6,21.638C73.643,24.299 70.65,26.999 66.546,26.999C62.442,26.999 57.452,23.956 57.452,17.682L57.45,17.682ZM72.219,13.575C71.836,11.028 69.764,8.022 66.273,8.022C63.011,7.985 61.016,10.379 60.404,13.575L72.219,13.575Z" style="fill-rule:nonzero;"/>
                </g>
                <g transform="matrix(1,0,0,0.607694,354.179471,0)">
                    <path d="M77.084,26.125C78.274,25.782 78.618,24.908 78.618,21.791L78.618,13.044C78.618,10.383 78.157,10.001 77.084,9.544L77.084,9.127L81.304,7.301L81.611,7.567L81.611,10.837C83.837,9.05 86.79,7.34 89.743,7.34C93.504,7.34 95.805,9.507 95.805,13.957L95.805,21.791C95.805,24.908 96.188,25.784 97.338,26.125L97.338,26.618L91.277,26.618L91.277,26.125C92.468,25.782 92.811,24.908 92.811,21.791L92.811,14.717C92.811,10.763 91.123,8.594 87.747,8.594C85.637,8.594 83.566,9.848 81.608,11.447L81.608,21.791C81.608,24.908 81.992,25.784 83.142,26.125L83.142,26.618L77.081,26.618L77.081,26.125L77.084,26.125Z" style="fill-rule:nonzero;"/>
                </g>
                <g transform="matrix(1,0,0,0.607694,354.179471,0)">
                    <path d="M55.541,0.286C55.235,-0.129 54.439,0.072 53.452,0.786C52.425,1.529 51.817,2.337 51.444,3.268C51.338,3.535 51.151,3.76 50.902,3.906L50.679,4.037L50.457,3.906C50.208,3.76 50.02,3.535 49.914,3.268C49.542,2.337 48.934,1.529 47.907,0.786C46.922,0.072 46.124,-0.129 45.817,0.286C45.42,0.824 45.332,2.071 46.221,2.715C46.816,3.146 47.805,3.535 49.264,4.065C49.454,4.135 49.626,4.249 49.765,4.395L50.646,5.341L50.71,5.341L51.592,4.395C51.728,4.247 51.903,4.133 52.092,4.065C53.551,3.532 54.543,3.146 55.136,2.715C56.024,2.073 55.936,0.824 55.539,0.286L55.541,0.286Z" style="fill-rule:nonzero;"/>
                </g>
                <g transform="matrix(1,0,0,0.607694,354.179471,0)">
                    <path d="M111.742,7.604L111.742,8.098C113.084,8.365 113.161,9.581 112.088,12.052L107.369,22.929L102.65,12.052C101.423,9.199 101.116,8.439 102.267,8.098L102.267,7.604L96.472,7.604L96.472,8.098C97.279,8.441 98.238,9.201 99.426,12.052L105.718,26.693C105.703,26.726 105.685,26.761 105.67,26.793L105.299,27.521C105.264,27.586 105.231,27.652 105.196,27.717C103.84,30.142 102.403,30.745 98.333,30.789C98.333,30.789 97.764,30.802 97.396,30.802C95.977,30.802 95.018,32.172 95.018,32.895C95.018,33.832 96.993,33.941 97.094,33.95C101.385,34.315 103.519,32.785 105.449,28.307L105.868,27.462C106.152,26.911 106.437,26.317 106.719,25.67L112.665,12.056C113.93,9.203 114.929,8.443 116.002,8.102L116.002,7.609L111.744,7.609L111.742,7.604Z" style="fill-rule:nonzero;"/>
                </g>
            </g>
        </g>
    </g>
</svg>
