<?xml version="1.0" encoding="UTF-8" standalone="no"?>
<!DOCTYPE svg PUBLIC "-//W3C//DTD SVG 1.1//EN" "http://www.w3.org/Graphics/SVG/1.1/DTD/svg11.dtd">
<svg width="100%" height="100%" viewBox="0 0 505 1090" version="1.1" xmlns="http://www.w3.org/2000/svg" xmlns:xlink="http://www.w3.org/1999/xlink" xml:space="preserve" xmlns:serif="http://www.serif.com/" style="fill-rule:evenodd;clip-rule:evenodd;stroke-linejoin:round;stroke-miterlimit:2;">
    <g transform="matrix(1,0,0,1,-5959.172577,-2828)">
        <g id="Artboard15" transform="matrix(0.423809,0,0,1,3578.738762,-0.124297)">
            <rect x="5616.758" y="2828.124" width="1191.177" height="1089.076" style="fill:none;"/>
            <clipPath id="_clip1">
                <rect x="5616.758" y="2828.124" width="1191.177" height="1089.076"/>
            </clipPath>
            <g clip-path="url(#_clip1)">
                <g transform="matrix(2.241289,0,0,1.005095,-3016.310485,-900.748851)">
                    <path d="M4175.794,4808.945C4174.557,4809.03 4174.498,4809.008 4173.559,4808.241C4172.968,4807.758 4172.692,4806.98 4172.5,4806.263C4172.493,4806.236 4171.036,4788.147 4169.957,4760.133C4167.311,4691.452 4170.887,4672.026 4141.257,4599.814C4139.782,4596.218 4131.919,4577.432 4127.376,4567.942C4120.399,4553.369 4111.292,4538.579 4103.806,4521.964C4092.347,4496.532 4078.483,4454.25 4080.535,4365.666C4080.565,4364.394 4080.518,4360.173 4081.718,4342.84C4084.019,4309.579 4086.657,4293.19 4093,4224.855C4094.873,4204.676 4095.983,4189.892 4096.002,4189.462C4096.012,4189.219 4096.746,4163.823 4097.114,4140.833C4097.469,4118.666 4097.527,4102.538 4097.533,4102.292C4097.56,4101.209 4097.63,4101.213 4098.449,4088.783C4101.213,4046.808 4101.317,4046.818 4104.772,3985.735C4104.98,3982.054 4106.154,3950.046 4108.229,3910.934C4108.569,3904.518 4110.467,3859.191 4115.22,3792.31C4115.83,3783.726 4116.909,3763.313 4119.727,3721.441C4119.857,3719.502 4121.352,3697.298 4121.396,3697.214C4121.747,3696.556 4121.859,3695.719 4122.452,3695.24C4122.465,3695.23 4124.709,3694.547 4124.717,3694.551C4125.419,3694.887 4126.309,3694.999 4126.82,3695.565C4127.327,3696.125 4127.451,3696.937 4127.537,3697.67C4127.576,3698.007 4124.226,3729.915 4119.59,3786.885C4119.506,3787.917 4117.001,3824.013 4115.054,3863.766C4112.941,3906.905 4112.621,3925.612 4112.586,3926.959C4111.875,3954.471 4111.368,3985.135 4111.366,3985.91C4111.264,4024.474 4111.231,4046.39 4110.612,4081.253C4110.574,4083.419 4110.038,4102.528 4110.013,4102.851C4110.008,4102.917 4107.081,4134.412 4102.437,4175.604C4101.104,4187.43 4100.889,4188.73 4100.708,4191.38C4097.978,4231.262 4097.387,4244.196 4092.895,4303.16C4090.309,4337.106 4089.746,4359.343 4089.686,4360.47C4085.736,4435.347 4091.761,4474.94 4102.308,4505.59C4110.471,4529.314 4120.975,4546.04 4130.439,4565.546C4135.228,4575.416 4147.553,4603.421 4155.352,4624.578C4178.272,4686.752 4171.11,4707.971 4178.024,4797.676C4178.074,4798.329 4178.651,4805.819 4178.643,4805.841C4177.957,4807.781 4178.019,4807.809 4177.896,4807.944C4177.086,4808.829 4177.03,4808.86 4175.794,4808.945Z"/>
                </g>
                <g transform="matrix(2.241289,0,0,1.090913,-3031.660227,-1283.880901)">
                    <rect x="4054.886" y="4274.992" width="143.087" height="368.055" style="fill:white;"/>
                </g>
                <g transform="matrix(2.241289,0,0,1.026383,-3039.620735,-1474.019355)">
                    <rect x="4054.886" y="4274.992" width="143.087" height="368.055" style="fill:white;"/>
                </g>
                <g transform="matrix(7.394022,0.103868,-1.629469,20.834583,-5744.978018,1943.428378)">
                    <g transform="matrix(5.461052,0,0,0.821377,1447.777295,33.531436)">
                        <path d="M22.928,10.892L22.928,10.896C23.62,10.394 25.232,10.283 26.06,11.407C26.616,12.161 27.116,13.417 27.804,15.265C27.894,15.506 28.042,15.724 28.231,15.899L29.452,17.015L29.452,17.098L28.231,18.215C28.04,18.389 27.894,18.608 27.804,18.848C27.116,20.696 26.616,21.952 26.06,22.706C25.232,23.831 23.623,23.719 22.928,23.217C22.393,22.828 22.653,21.819 23.574,20.569C24.535,19.268 25.578,18.496 26.777,18.025C27.12,17.889 27.411,17.651 27.599,17.336L27.766,17.054L27.599,16.773C27.411,16.458 27.12,16.22 26.777,16.085C25.575,15.613 24.533,14.842 23.574,13.54C22.653,12.288 22.393,11.281 22.928,10.892ZM22.969,10.996C22.872,11.069 22.571,11.351 22.906,12.221C23.121,12.781 23.508,13.328 23.653,13.528C23.902,13.873 24.196,14.191 24.246,14.246C24.98,15.043 25.789,15.602 26.752,15.985C26.811,16.008 27.35,16.176 27.683,16.722C27.697,16.746 27.857,17.009 27.86,17.017C27.88,17.063 27.858,17.101 27.855,17.107C27.837,17.139 27.668,17.431 27.622,17.499C27.296,17.973 26.832,18.135 26.687,18.201C25.828,18.589 24.963,19.182 24.107,20.247C24.095,20.262 22.751,21.669 22.739,22.644C22.739,22.681 22.747,22.863 22.845,23.007C22.849,23.013 22.919,23.149 23.246,23.291C23.941,23.594 25.252,23.612 25.96,22.606C26.307,22.113 26.566,21.505 26.739,21.124C27.163,20.19 27.68,18.833 27.736,18.713C27.851,18.465 28.007,18.278 28.153,18.148C28.558,17.785 28.964,17.423 29.369,17.06L29.369,17.051C28.191,15.955 28.187,15.958 28.096,15.86C27.809,15.553 27.716,15.227 27.675,15.118C27.101,13.592 26.478,12.015 25.893,11.339C25.098,10.422 23.666,10.511 23.007,10.973C23.006,10.974 22.992,10.987 22.969,10.996Z"/>
                    </g>
                    <g transform="matrix(5.461052,0,0,0.821377,1447.777295,33.531436)">
                        <path d="M41.965,10.892C42.5,11.281 42.24,12.288 41.319,13.54C40.36,14.842 39.318,15.613 38.116,16.085C37.772,16.22 37.482,16.458 37.294,16.773L37.127,17.054L37.294,17.336C37.482,17.651 37.772,17.889 38.116,18.024C39.315,18.496 40.358,19.268 41.319,20.569C42.24,21.819 42.5,22.828 41.965,23.217C41.27,23.72 39.661,23.831 38.833,22.706C38.277,21.952 37.777,20.696 37.089,18.848C36.999,18.608 36.853,18.389 36.662,18.214L35.441,17.098L35.441,17.015L36.662,15.899C36.851,15.724 36.999,15.506 37.089,15.265C37.777,13.417 38.277,12.161 38.833,11.407C39.661,10.283 41.272,10.394 41.965,10.896L41.965,10.892ZM41.922,10.996C41.916,10.993 41.909,10.989 41.902,10.985C41.899,10.983 41.516,10.677 40.802,10.637C40.452,10.618 39.508,10.64 38.89,11.477C38.297,12.282 37.747,13.714 37.154,15.29C37.011,15.668 36.762,15.899 36.708,15.949L35.524,17.051L35.524,17.06C36.724,18.133 36.727,18.13 36.815,18.219C37.114,18.521 37.217,18.857 37.265,18.978C37.848,20.461 38.045,20.881 38.284,21.411C38.812,22.588 39.139,22.863 39.24,22.951C40.105,23.712 41.408,23.523 41.928,23.133C42.112,22.995 42.145,22.787 42.153,22.676C42.165,22.516 42.101,22.294 42.091,22.262C41.826,21.341 40.838,20.309 40.792,20.255C40.617,20.047 40.03,19.28 39.038,18.649C38.466,18.286 38.087,18.163 37.888,18.052C37.853,18.032 37.454,17.822 37.212,17.406C37.198,17.381 37.035,17.102 37.032,17.093C37.029,17.086 37.014,17.046 37.04,17.003C37.058,16.973 37.227,16.692 37.27,16.632C37.606,16.155 38.07,16.014 38.197,15.962C39.488,15.437 40.421,14.616 41.218,13.558C41.404,13.312 41.573,13.033 41.602,12.986C41.905,12.485 42.078,12.054 42.127,11.711C42.194,11.241 42.01,11.063 41.922,10.996Z"/>
                    </g>
                    <g transform="matrix(5.461052,0,0,0.821377,1447.777295,33.531436)">
                        <path d="M38.661,7.617L38.656,7.617C39.163,8.303 39.276,9.9 38.141,10.722C37.38,11.272 36.113,11.768 34.248,12.45C34.006,12.539 33.785,12.685 33.609,12.873L32.483,14.084L32.399,14.084L31.273,12.873C31.096,12.683 30.876,12.539 30.634,12.45C28.769,11.768 27.502,11.272 26.741,10.722C25.606,9.9 25.719,8.306 26.226,7.617C26.618,7.087 27.636,7.344 28.897,8.257C30.21,9.21 30.988,10.243 31.465,11.432C31.601,11.772 31.841,12.061 32.159,12.246L32.443,12.412L32.727,12.246C33.045,12.061 33.285,11.772 33.422,11.432C33.898,10.241 34.676,9.208 35.989,8.257C37.252,7.344 38.268,7.087 38.661,7.617ZM38.557,7.659C38.483,7.562 38.197,7.264 37.319,7.596C36.749,7.811 36.195,8.198 36,8.336C35.715,8.539 35.427,8.791 35.379,8.832C34.212,9.854 33.748,10.841 33.493,11.48C33.335,11.876 33.063,12.16 32.777,12.331C32.753,12.345 32.488,12.504 32.481,12.507C32.435,12.526 32.398,12.505 32.391,12.501C32.359,12.483 32.064,12.316 31.996,12.27C31.518,11.948 31.354,11.487 31.288,11.344C30.931,10.567 30.356,9.68 29.225,8.788C29.191,8.761 27.784,7.444 26.804,7.431C26.766,7.43 26.582,7.438 26.436,7.536C26.431,7.54 26.294,7.609 26.15,7.933C25.845,8.62 25.825,9.919 26.841,10.621C27.346,10.97 27.978,11.233 28.336,11.392C29.277,11.812 30.648,12.326 30.769,12.381C31.013,12.493 31.203,12.645 31.339,12.794C31.705,13.196 32.071,13.598 32.436,14L32.448,14.001C33.548,12.838 33.544,12.832 33.667,12.721C33.972,12.451 34.288,12.362 34.398,12.321C35.942,11.751 37.529,11.134 38.211,10.554C39.136,9.767 39.046,8.348 38.58,7.697C38.579,7.696 38.566,7.681 38.557,7.659Z"/>
                    </g>
                    <g transform="matrix(5.461052,0,0,0.821377,1447.777295,33.531436)">
                        <path d="M38.661,26.485C38.268,27.016 37.252,26.758 35.989,25.845C34.676,24.895 33.898,23.862 33.422,22.671C33.285,22.33 33.045,22.042 32.727,21.856L32.443,21.69L32.159,21.856C31.841,22.042 31.601,22.33 31.465,22.671C30.988,23.859 30.21,24.893 28.897,25.845C27.636,26.758 26.618,27.016 26.226,26.485C25.719,25.797 25.606,24.202 26.741,23.381C27.502,22.83 28.769,22.335 30.634,21.653C30.876,21.564 31.096,21.419 31.273,21.229L32.399,20.019L32.483,20.019L33.609,21.229C33.785,21.417 34.006,21.563 34.248,21.653C36.113,22.335 37.38,22.831 38.141,23.381C39.276,24.202 39.163,25.799 38.656,26.485L38.661,26.485ZM38.557,26.442C38.56,26.435 38.564,26.428 38.569,26.421C38.57,26.419 38.879,26.04 38.919,25.333C38.939,24.977 38.912,24.048 38.072,23.439C37.26,22.851 35.817,22.307 34.224,21.717C34.005,21.636 33.764,21.492 33.559,21.276L32.448,20.102L32.436,20.102C31.353,21.292 31.356,21.296 31.267,21.382C30.961,21.679 30.623,21.781 30.502,21.828C29.051,22.39 28.62,22.585 28.046,22.838C26.857,23.362 26.581,23.687 26.492,23.786C25.726,24.643 25.916,25.933 26.31,26.448C26.449,26.63 26.66,26.663 26.771,26.671C26.932,26.683 27.158,26.619 27.19,26.61C28.119,26.346 29.16,25.367 29.209,25.328C29.599,25.011 30.472,24.323 31.119,23.101C31.363,22.641 31.367,22.507 31.589,22.217C31.622,22.174 31.802,21.938 32.089,21.774C32.115,21.759 32.396,21.598 32.405,21.595C32.412,21.592 32.451,21.577 32.494,21.603C32.524,21.621 32.808,21.789 32.869,21.831C33.35,22.165 33.493,22.625 33.544,22.75C34.04,23.946 34.82,24.894 35.97,25.744C36.265,25.963 36.575,26.142 36.63,26.173C37.127,26.46 37.536,26.608 37.853,26.648C38.314,26.707 38.49,26.528 38.557,26.442Z"/>
                    </g>
                    <g transform="matrix(5.461052,0,0,0.821377,1447.777295,33.531436)">
                        <path d="M32.426,18.363C31.695,18.363 31.103,17.776 31.103,17.052C31.103,16.328 31.695,15.742 32.426,15.742C33.156,15.742 33.748,16.329 33.748,17.052C33.748,17.776 33.156,18.363 32.426,18.363ZM32.426,18.255C32.468,18.257 32.725,18.279 33.009,18.149C33.034,18.138 33.27,18.021 33.449,17.753C33.515,17.655 33.629,17.465 33.637,17.16C33.64,17.055 33.634,16.97 33.586,16.831C33.484,16.536 33.287,16.372 33.27,16.351C33.264,16.344 33.169,16.112 32.906,15.927C32.9,15.923 32.902,15.917 32.822,15.893C32.589,15.82 32.173,15.823 31.821,16.066C31.746,16.118 31.22,16.367 31.179,17.036C31.178,17.037 31.127,17.429 31.446,17.813C31.842,18.29 32.392,18.254 32.426,18.255L32.426,18.255Z"/>
                    </g>
                    <g transform="matrix(5.461052,0,0,0.821377,1447.777295,33.531436)">
                        <path d="M32.426,9.09C31.817,9.09 31.324,8.601 31.324,7.998C31.324,7.394 31.817,6.905 32.426,6.905C33.034,6.905 33.528,7.394 33.528,7.998C33.528,8.601 33.034,9.09 32.426,9.09ZM32.426,8.982C32.512,8.986 32.695,8.998 32.927,8.892C32.942,8.885 33.097,8.793 33.21,8.653C33.375,8.447 33.403,8.277 33.414,8.161C33.428,8.02 33.408,7.941 33.403,7.923C33.352,7.72 33.245,7.575 33.124,7.457C33.103,7.438 33.102,7.439 33.101,7.436C33.091,7.422 33.035,7.243 32.82,7.073C32.814,7.069 32.816,7.065 32.763,7.048C32.539,6.978 32.202,7.008 31.935,7.198C31.882,7.237 31.543,7.391 31.434,7.783C31.361,8.049 31.407,8.236 31.47,8.384C31.519,8.498 31.657,8.731 31.922,8.867C32.148,8.983 32.327,8.98 32.426,8.981L32.426,8.982Z"/>
                    </g>
                    <g transform="matrix(5.461052,0,0,0.821377,1447.777295,33.531436)">
                        <path d="M32.426,27.199C31.817,27.2 31.324,26.71 31.324,26.107C31.324,25.504 31.817,25.015 32.426,25.015C33.034,25.015 33.528,25.504 33.528,26.107C33.528,26.71 33.034,27.2 32.426,27.199ZM32.426,27.092C32.512,27.096 32.695,27.108 32.927,27.001C32.942,26.994 33.097,26.903 33.21,26.763C33.375,26.557 33.403,26.387 33.414,26.271C33.428,26.129 33.408,26.051 33.403,26.033C33.352,25.829 33.245,25.684 33.124,25.567C33.103,25.547 33.102,25.548 33.101,25.546C33.091,25.532 33.035,25.352 32.82,25.183C32.814,25.179 32.816,25.175 32.763,25.158C32.539,25.088 32.202,25.118 31.935,25.308C31.882,25.346 31.543,25.501 31.434,25.893C31.361,26.159 31.407,26.345 31.47,26.493C31.519,26.608 31.657,26.841 31.922,26.977C32.148,27.093 32.327,27.09 32.426,27.091L32.426,27.092Z"/>
                    </g>
                </g>
                <g transform="matrix(7.35358,-0.343388,5.387013,20.720627,-5988.577971,3156.824378)">
                    <g transform="matrix(5.461052,0,0,0.821377,1447.777295,33.531436)">
                        <path d="M22.928,10.892L22.929,10.896C23.62,10.394 25.232,10.283 26.06,11.407C26.616,12.161 27.116,13.417 27.804,15.265C27.894,15.506 28.042,15.724 28.231,15.899L29.452,17.015L29.452,17.098L28.231,18.215C28.04,18.389 27.894,18.608 27.804,18.848C27.116,20.696 26.616,21.952 26.06,22.706C25.232,23.831 23.623,23.72 22.928,23.217C22.393,22.828 22.653,21.819 23.574,20.569C24.535,19.267 25.578,18.496 26.777,18.024C27.12,17.889 27.411,17.651 27.599,17.336L27.766,17.055L27.599,16.773C27.411,16.458 27.121,16.22 26.777,16.085C25.576,15.613 24.533,14.842 23.574,13.54C22.653,12.288 22.393,11.281 22.928,10.892ZM22.969,10.996C22.872,11.069 22.571,11.351 22.906,12.221C23.121,12.781 23.508,13.328 23.653,13.528C23.902,13.873 24.196,14.191 24.246,14.246C24.98,15.043 25.789,15.602 26.752,15.985C26.811,16.008 27.35,16.176 27.683,16.722C27.697,16.746 27.857,17.009 27.86,17.017C27.88,17.063 27.858,17.101 27.855,17.107C27.837,17.139 27.668,17.431 27.622,17.499C27.296,17.973 26.832,18.135 26.687,18.201C25.828,18.589 24.963,19.182 24.107,20.247C24.095,20.262 22.751,21.669 22.739,22.644C22.739,22.681 22.747,22.863 22.845,23.007C22.849,23.013 22.919,23.149 23.246,23.291C23.941,23.594 25.252,23.612 25.96,22.606C26.307,22.113 26.566,21.505 26.739,21.124C27.163,20.19 27.68,18.833 27.736,18.713C27.851,18.465 28.007,18.278 28.153,18.148C28.558,17.785 28.964,17.423 29.369,17.06L29.369,17.051C28.191,15.955 28.187,15.958 28.096,15.86C27.809,15.553 27.716,15.227 27.675,15.118C27.101,13.592 26.478,12.015 25.893,11.339C25.098,10.422 23.666,10.511 23.007,10.973C23.006,10.974 22.992,10.987 22.969,10.996Z"/>
                    </g>
                    <g transform="matrix(5.461052,0,0,0.821377,1447.777295,33.531436)">
                        <path d="M41.965,10.892C42.5,11.281 42.24,12.288 41.319,13.54C40.36,14.842 39.318,15.613 38.116,16.085C37.772,16.22 37.482,16.458 37.294,16.773L37.127,17.054L37.294,17.336C37.482,17.651 37.773,17.889 38.116,18.025C39.315,18.496 40.358,19.267 41.319,20.569C42.24,21.819 42.5,22.828 41.965,23.217C41.27,23.719 39.661,23.831 38.833,22.706C38.277,21.952 37.777,20.696 37.089,18.848C36.999,18.608 36.853,18.389 36.662,18.215L35.441,17.098L35.441,17.015L36.662,15.899C36.851,15.724 36.999,15.506 37.089,15.265C37.777,13.417 38.277,12.161 38.833,11.407C39.661,10.282 41.273,10.394 41.965,10.896L41.965,10.892ZM41.922,10.996C41.916,10.993 41.909,10.989 41.902,10.985C41.899,10.983 41.516,10.677 40.802,10.637C40.452,10.618 39.508,10.64 38.89,11.477C38.297,12.282 37.747,13.714 37.154,15.29C37.011,15.668 36.762,15.899 36.708,15.949L35.524,17.051L35.524,17.06C36.724,18.133 36.727,18.13 36.815,18.219C37.114,18.521 37.217,18.857 37.265,18.978C37.848,20.461 38.045,20.881 38.284,21.411C38.812,22.588 39.139,22.863 39.24,22.951C40.105,23.712 41.408,23.523 41.928,23.133C42.112,22.995 42.145,22.787 42.153,22.676C42.165,22.516 42.101,22.294 42.091,22.262C41.826,21.341 40.838,20.309 40.792,20.255C40.617,20.047 40.03,19.28 39.038,18.649C38.466,18.286 38.087,18.163 37.888,18.052C37.853,18.032 37.454,17.822 37.212,17.406C37.198,17.381 37.035,17.102 37.032,17.093C37.029,17.086 37.014,17.046 37.04,17.003C37.058,16.973 37.227,16.692 37.27,16.632C37.606,16.155 38.07,16.014 38.197,15.962C39.488,15.437 40.421,14.616 41.218,13.558C41.404,13.312 41.573,13.033 41.602,12.986C41.905,12.485 42.078,12.054 42.127,11.711C42.194,11.241 42.01,11.063 41.922,10.996Z"/>
                    </g>
                    <g transform="matrix(5.461052,0,0,0.821377,1447.777295,33.531436)">
                        <path d="M38.661,7.617L38.656,7.617C39.163,8.303 39.276,9.9 38.141,10.722C37.38,11.272 36.113,11.768 34.248,12.45C34.006,12.539 33.786,12.686 33.609,12.873L32.483,14.084L32.399,14.084L31.273,12.873C31.097,12.683 30.876,12.539 30.634,12.45C28.769,11.768 27.502,11.272 26.741,10.722C25.606,9.9 25.719,8.306 26.226,7.617C26.618,7.087 27.636,7.344 28.897,8.257C30.21,9.21 30.989,10.243 31.465,11.432C31.601,11.772 31.842,12.061 32.159,12.246L32.443,12.413L32.727,12.246C33.045,12.061 33.285,11.772 33.422,11.432C33.898,10.241 34.676,9.208 35.99,8.257C37.252,7.344 38.268,7.087 38.661,7.617ZM38.557,7.659C38.483,7.562 38.197,7.264 37.319,7.596C36.749,7.811 36.195,8.198 36,8.336C35.715,8.539 35.427,8.791 35.379,8.832C34.212,9.854 33.748,10.841 33.493,11.48C33.335,11.876 33.063,12.16 32.777,12.331C32.753,12.345 32.488,12.504 32.481,12.507C32.435,12.526 32.398,12.505 32.391,12.501C32.359,12.483 32.064,12.316 31.996,12.27C31.518,11.948 31.354,11.487 31.288,11.344C30.931,10.567 30.356,9.68 29.225,8.788C29.191,8.761 27.784,7.444 26.804,7.431C26.766,7.43 26.582,7.438 26.436,7.536C26.431,7.54 26.294,7.609 26.15,7.933C25.845,8.62 25.825,9.919 26.841,10.621C27.346,10.97 27.978,11.233 28.336,11.392C29.277,11.812 30.648,12.326 30.769,12.381C31.013,12.493 31.203,12.645 31.339,12.794C31.705,13.196 32.071,13.598 32.436,14L32.448,14.001C33.548,12.838 33.544,12.832 33.667,12.721C33.972,12.451 34.288,12.362 34.398,12.321C35.942,11.751 37.529,11.134 38.211,10.554C39.136,9.767 39.046,8.348 38.58,7.697C38.579,7.696 38.566,7.681 38.557,7.659Z"/>
                    </g>
                    <g transform="matrix(5.461052,0,0,0.821377,1447.777295,33.531436)">
                        <path d="M38.661,26.485C38.268,27.016 37.252,26.758 35.989,25.845C34.676,24.895 33.898,23.862 33.422,22.671C33.285,22.33 33.045,22.042 32.728,21.856L32.443,21.69L32.159,21.856C31.841,22.042 31.601,22.33 31.465,22.671C30.988,23.859 30.21,24.893 28.897,25.845C27.636,26.758 26.618,27.016 26.226,26.485C25.719,25.797 25.606,24.202 26.741,23.381C27.502,22.831 28.769,22.335 30.634,21.653C30.876,21.564 31.096,21.419 31.273,21.229L32.399,20.019L32.483,20.019L33.609,21.229C33.786,21.417 34.006,21.564 34.248,21.653C36.113,22.335 37.38,22.831 38.141,23.381C39.276,24.202 39.163,25.799 38.656,26.485L38.661,26.485ZM38.557,26.442C38.56,26.435 38.564,26.428 38.569,26.421C38.57,26.419 38.879,26.04 38.919,25.333C38.939,24.977 38.912,24.048 38.072,23.439C37.26,22.851 35.817,22.307 34.224,21.717C34.005,21.636 33.764,21.492 33.559,21.276L32.448,20.102L32.436,20.102C31.353,21.292 31.356,21.296 31.267,21.382C30.961,21.679 30.623,21.781 30.502,21.828C29.051,22.39 28.62,22.585 28.046,22.838C26.857,23.362 26.581,23.687 26.492,23.786C25.726,24.643 25.916,25.933 26.31,26.448C26.449,26.63 26.66,26.663 26.771,26.671C26.932,26.683 27.158,26.619 27.19,26.61C28.119,26.346 29.16,25.367 29.209,25.328C29.599,25.011 30.472,24.323 31.119,23.101C31.363,22.641 31.367,22.507 31.589,22.217C31.622,22.174 31.802,21.938 32.089,21.774C32.115,21.759 32.396,21.598 32.405,21.595C32.412,21.592 32.451,21.577 32.494,21.603C32.524,21.621 32.808,21.789 32.869,21.831C33.35,22.165 33.493,22.625 33.544,22.75C34.04,23.946 34.82,24.894 35.97,25.744C36.265,25.963 36.575,26.142 36.63,26.173C37.127,26.46 37.536,26.608 37.853,26.648C38.314,26.707 38.49,26.528 38.557,26.442Z"/>
                    </g>
                    <g transform="matrix(5.461052,0,0,0.821377,1447.777295,33.531436)">
                        <path d="M32.426,18.363C31.695,18.363 31.103,17.776 31.103,17.052C31.103,16.329 31.695,15.742 32.426,15.742C33.156,15.742 33.748,16.329 33.748,17.052C33.748,17.776 33.156,18.363 32.426,18.363ZM32.426,18.255C32.468,18.257 32.725,18.279 33.009,18.149C33.034,18.138 33.27,18.021 33.449,17.753C33.515,17.655 33.629,17.465 33.637,17.16C33.64,17.055 33.634,16.97 33.586,16.831C33.484,16.536 33.287,16.372 33.27,16.351C33.264,16.344 33.169,16.112 32.906,15.927C32.9,15.923 32.902,15.917 32.822,15.893C32.589,15.82 32.173,15.823 31.821,16.066C31.746,16.118 31.22,16.367 31.179,17.036C31.178,17.037 31.127,17.429 31.446,17.813C31.842,18.29 32.392,18.254 32.426,18.255L32.426,18.255Z"/>
                    </g>
                    <g transform="matrix(5.461052,0,0,0.821377,1447.777295,33.531436)">
                        <path d="M32.426,9.09C31.817,9.09 31.324,8.601 31.324,7.998C31.324,7.394 31.817,6.905 32.426,6.905C33.034,6.905 33.528,7.394 33.528,7.998C33.528,8.601 33.034,9.09 32.426,9.09ZM32.426,8.982C32.512,8.986 32.695,8.998 32.927,8.892C32.942,8.885 33.097,8.793 33.21,8.653C33.375,8.447 33.403,8.277 33.414,8.161C33.428,8.02 33.408,7.941 33.403,7.923C33.352,7.72 33.245,7.575 33.124,7.457C33.103,7.438 33.102,7.439 33.101,7.436C33.091,7.422 33.035,7.243 32.82,7.073C32.814,7.069 32.816,7.065 32.763,7.048C32.539,6.978 32.202,7.008 31.935,7.198C31.882,7.237 31.543,7.391 31.434,7.783C31.361,8.049 31.407,8.236 31.47,8.384C31.519,8.498 31.657,8.731 31.922,8.867C32.148,8.983 32.327,8.98 32.426,8.981L32.426,8.982Z"/>
                    </g>
                    <g transform="matrix(5.461052,0,0,0.821377,1447.777295,33.531436)">
                        <path d="M32.426,27.2C31.817,27.2 31.324,26.711 31.324,26.107C31.324,25.504 31.817,25.015 32.426,25.015C33.034,25.015 33.528,25.504 33.528,26.107C33.528,26.711 33.034,27.2 32.426,27.2ZM32.426,27.092C32.512,27.096 32.695,27.108 32.927,27.001C32.942,26.994 33.097,26.903 33.21,26.763C33.375,26.557 33.403,26.387 33.414,26.271C33.428,26.129 33.408,26.051 33.403,26.033C33.352,25.829 33.245,25.684 33.124,25.567C33.103,25.547 33.102,25.548 33.101,25.546C33.091,25.532 33.035,25.352 32.82,25.183C32.814,25.179 32.816,25.175 32.763,25.158C32.539,25.088 32.202,25.118 31.935,25.308C31.882,25.346 31.543,25.501 31.434,25.893C31.361,26.159 31.407,26.345 31.47,26.493C31.519,26.608 31.657,26.841 31.922,26.977C32.148,27.093 32.327,27.09 32.426,27.091L32.426,27.092Z"/>
                    </g>
                </g>
            </g>
        </g>
    </g>
</svg>
