<?xml version="1.0" encoding="UTF-8" standalone="no"?>
<!DOCTYPE svg PUBLIC "-//W3C//DTD SVG 1.1//EN" "http://www.w3.org/Graphics/SVG/1.1/DTD/svg11.dtd">
<svg width="100%" height="100%" viewBox="0 0 1920 118" version="1.1" xmlns="http://www.w3.org/2000/svg" xmlns:xlink="http://www.w3.org/1999/xlink" xml:space="preserve" xmlns:serif="http://www.serif.com/" style="fill-rule:evenodd;clip-rule:evenodd;stroke-linejoin:round;stroke-miterlimit:2;">
    <g transform="matrix(1,0,0,1,-6575.844919,-947.567361)">
        <g id="Artboard1" transform="matrix(1,0,0,0.108713,6575.844919,947.567361)">
            <rect x="0" y="0" width="1920" height="1080" style="fill:white;"/>
            <clipPath id="_clip1">
                <rect x="0" y="0" width="1920" height="1080"/>
            </clipPath>
            <g clip-path="url(#_clip1)">
                <g id="Layer1">
                </g>
                <g transform="matrix(1,0,0,9.198523,-6575.844919,-14379.321889)">
                    <path d="M6492.135,1636.05C6491.987,1634.879 6492.024,1634.824 6492.761,1633.902C6493.725,1632.697 6493.904,1632.876 6495.437,1632.756C6513.302,1631.352 6824.179,1614.836 6896.955,1611.382C6903.982,1611.049 6920.428,1610.124 6980.138,1608.283C7066.174,1605.631 7112.329,1605.703 7128.994,1605.715C7236.979,1605.796 7308.618,1610.005 7379.794,1614.14C7393.543,1614.939 7455.212,1619.765 7522.026,1621.182C7574.513,1622.295 7606.18,1621.182 7646.484,1620.662C7685.095,1620.165 7704.964,1620.282 7708.352,1620.199C7777.452,1618.521 7827.322,1619.284 7874.834,1620.502C7879.223,1620.615 7932.346,1624.031 7960.326,1625.457C8009.994,1627.988 8052.198,1628.678 8100.582,1627.971C8100.597,1627.971 8118.74,1627.622 8144.825,1626.619C8208.358,1624.176 8248.935,1620.915 8312.472,1617.158C8415.148,1611.088 8472.753,1609.229 8486.458,1608.665C8621.63,1603.105 8647.418,1608.445 8655.774,1611.133C8656.92,1611.501 8657.39,1612.442 8657.471,1612.603C8657.478,1612.618 8657.635,1614.838 8657.629,1614.845C8657.143,1615.405 8656.828,1616.188 8656.165,1616.519C8654.882,1617.161 8654.804,1616.959 8653.435,1616.522C8628.03,1608.409 8519.12,1611.497 8482.255,1612.627C8482.206,1612.628 8443.263,1613.951 8378.168,1617.532C8341.592,1619.544 8282.357,1623.174 8236.845,1626.547C8160.612,1632.196 8118.229,1633.561 8093.007,1634.528C8001.097,1638.05 7941.004,1634.935 7878.107,1632.494C7872.051,1632.259 7872.061,1632.113 7850.676,1630.727C7805.117,1627.775 7762.262,1625.819 7708.366,1624.814C7707.685,1624.802 7693.503,1624.844 7677.799,1625.109C7615.617,1626.161 7596.475,1627.927 7541.338,1628.035C7476.486,1628.163 7424.724,1625.304 7380.048,1622.743C7370.514,1622.197 7311.566,1617.753 7264.384,1615.154C7207.409,1612.015 7142.636,1609.665 7046.714,1610.686C7040.394,1610.753 7003.438,1611.146 6967.732,1612.327C6920.039,1613.905 6904.308,1614.691 6832.092,1618.719C6672.103,1627.642 6499.923,1638.202 6495.346,1638.636C6494.154,1638.749 6493.355,1638.11 6493.217,1637.999C6492.302,1637.268 6492.283,1637.211 6492.135,1636.05Z"/>
                </g>
            </g>
        </g>
    </g>
</svg>
