<?xml version="1.0" encoding="UTF-8" standalone="no"?>
<!DOCTYPE svg PUBLIC "-//W3C//DTD SVG 1.1//EN" "http://www.w3.org/Graphics/SVG/1.1/DTD/svg11.dtd">
<svg width="100%" height="100%" viewBox="0 0 1920 118" version="1.1" xmlns="http://www.w3.org/2000/svg" xmlns:xlink="http://www.w3.org/1999/xlink" xml:space="preserve" xmlns:serif="http://www.serif.com/" style="fill-rule:evenodd;clip-rule:evenodd;stroke-linejoin:round;stroke-miterlimit:2;">
    <g transform="matrix(1,0,0,1,-6575.844919,-1162.374044)">
        <g id="Artboard1" transform="matrix(1,0,0,0.108713,6575.844919,1162.374044)">
            <rect x="0" y="0" width="1920" height="1080" style="fill:white;"/>
            <clipPath id="_clip1">
                <rect x="0" y="0" width="1920" height="1080"/>
            </clipPath>
            <g clip-path="url(#_clip1)">
                <g id="Layer1">
                </g>
                <g transform="matrix(1,0,0,9.198523,-6569.132312,-11170.663655)">
                    <path d="M8669.104,1265.171C8669.178,1266.346 8669.155,1266.403 8668.376,1267.286C8667.884,1267.843 8667.077,1268.023 8666.377,1268.272C8666.11,1268.367 8658.002,1268.677 8657.273,1268.705C8590.834,1271.242 8234.286,1272.205 8132.903,1273.219C8131.326,1273.235 7973.902,1275.038 7952.973,1275.358C7811.573,1277.519 7756.042,1278.731 7741.482,1278.873C7700.734,1279.269 7692.882,1279.577 7675.322,1280.98C7621.851,1285.251 7550.29,1295.998 7431.49,1297.418C7425.179,1297.494 7419.73,1297.592 7406.473,1297.637C7399.313,1297.662 7335.013,1300.128 7233.966,1295.8C7233.687,1295.789 7233.68,1295.898 7216.756,1294.56C7171.124,1290.953 7157.811,1288.85 7106.541,1285.228C7060.787,1281.996 7023.953,1280.635 6998.838,1279.964C6998.718,1279.96 6975.337,1279.408 6943.931,1279.515C6878.744,1279.739 6826.164,1282.56 6804.693,1283.642C6750.193,1286.389 6729.616,1287.596 6696.226,1287.481C6657.846,1287.348 6626.222,1286.53 6590.973,1284.046C6542.665,1280.643 6513.427,1275.124 6422.279,1269.951C6421.108,1269.884 6421.043,1269.878 6420.269,1269.001C6420.258,1268.988 6419.539,1266.847 6419.543,1266.839C6419.869,1266.17 6419.971,1265.329 6420.529,1264.836C6421.085,1264.345 6421.895,1264.179 6422.634,1264.111C6423.014,1264.076 6440.027,1265.356 6441.54,1265.47C6529.933,1272.119 6561.52,1279.043 6615.462,1281.751C6622.521,1282.105 6652.978,1283.634 6703.796,1283.485C6743.857,1283.367 6792.422,1279.486 6865.398,1276.251C6934.419,1273.191 6977.968,1273.608 7005.614,1273.714C7098.331,1274.069 7165.948,1279.628 7200.002,1281.882C7223.709,1283.452 7229.336,1283.597 7234.719,1284.056C7282.693,1288.146 7340.402,1291.939 7403.883,1293.016C7409.336,1293.109 7440.851,1292.88 7477.582,1291.145C7589.245,1285.872 7653.096,1273.071 7702.312,1271.321C7714.427,1270.89 7734.133,1270.493 7741.357,1270.35C7775.768,1269.668 7925.157,1269.898 7973.013,1269.813L8173.973,1269.232C8184.007,1269.165 8608.316,1265.901 8666.005,1262.433C8667.18,1262.363 8667.236,1262.386 8668.118,1263.164C8669,1263.943 8669.03,1263.996 8669.104,1265.171Z"/>
                </g>
            </g>
        </g>
    </g>
</svg>
